IKResults
version=1
nRows=11
nColumns=63
inDegrees=yes

Units are S.I. units (second, meters, Newtons, ...)
If the header above contains a line with 'inDegrees', this indicates whether rotational values are in degrees (yes) or radians (no).

endheader
time	pelvis_tilt	pelvis_list	pelvis_rotation	pelvis_tx	pelvis_ty	pelvis_tz	hip_flexion_r	hip_adduction_r	hip_rotation_r	knee_angle_r	knee_angle_r_beta	ankle_angle_r	subtalar_angle_r	mtp_angle_r	hip_flexion_l	hip_adduction_l	hip_rotation_l	knee_angle_l	knee_angle_l_beta	ankle_angle_l	subtalar_angle_l	mtp_angle_l	L5_S1_Flex_Ext	L5_S1_Lat_Bending	L5_S1_axial_rotation	L4_L5_Flex_Ext	L4_L5_Lat_Bending	L4_L5_axial_rotation	L3_L4_Flex_Ext	L3_L4_Lat_Bending	L3_L4_axial_rotation	L2_L3_Flex_Ext	L2_L3_Lat_Bending	L2_L3_axial_rotation	L1_L2_Flex_Ext	L1_L2_Lat_Bending	L1_L2_axial_rotation	L1_T12_Flex_Ext	L1_T12_Lat_Bending	L1_T12_axial_rotation	Abs_r3	Abs_r2	Abs_r1	Abs_t1	Abs_t2	neck_flexion	neck_bending	neck_rotation	arm_flex_r	arm_add_r	arm_rot_r	elbow_flex_r	pro_sup_r	wrist_flex_r	wrist_dev_r	arm_flex_l	arm_add_l	arm_rot_l	elbow_flex_l	pro_sup_l	wrist_flex_l	wrist_dev_l
      0.03333333	    -17.07597520	     -1.16044798	     -1.84672448	     -0.65255739	      0.96110186	     -1.07233179	     11.54049017	      0.70975339	    -30.60299322	      2.59284893	      0.04525375	    -71.89237051	     -2.63792027	      0.00000000	      8.35359967	     -7.22853530	    -22.99174804	      0.17357737	      0.00302950	     24.41520523	     17.56529346	      0.00000000	      3.61421682	      0.15686383	      0.07998265	      6.71196206	      0.20862889	      0.08498157	      5.93779682	      0.38139871	      0.08498157	      4.13068841	      0.38139871	      0.06998482	      3.35616174	      0.31987672	      0.06498590	      2.06516349	      0.24298207	      0.05998699	     25.81598934	      1.77447500	      0.44483951	      0.00000000	      0.00000000	      3.71747129	      0.50200952	    -24.81510111	    -25.68043810	    -13.89602857	      9.93458179	     37.47862983	     89.99559364	      0.00000000	      0.00000000	    -22.41254450	    -15.73511563	     16.13358524	     44.28311345	     89.99559364	      0.00000000	      0.00000000
      0.06666667	    -17.07446828	     -1.15964554	     -1.84637081	     -0.65254649	      0.96109565	     -1.07222512	     11.54229073	      0.71300700	    -30.59311175	      2.61029769	      0.04555829	    -71.89188340	     -2.63431916	      0.00000000	      8.34917755	     -7.23305267	    -22.99331139	      0.17585524	      0.00306925	     24.43809421	     17.53329925	      0.00000000	      3.61569282	      0.15629328	      0.07919576	      6.71470313	      0.20787007	      0.08414550	      5.94022173	      0.38001149	      0.08414550	      4.13237532	      0.38001149	      0.06929629	      3.35753235	      0.31871326	      0.06434656	      2.06600688	      0.24209829	      0.05939682	     25.82653224	      1.76802087	      0.44046306	      0.00000000	      0.00000000	      3.72437219	      0.50403771	    -24.81301337	    -25.65621880	    -13.89897748	      9.93188917	     37.48173555	     89.99559364	      0.00000000	      0.00000000	    -22.39907545	    -15.74010038	     16.13070368	     44.28851360	     89.99559364	      0.00000000	      0.00000000
      0.10000000	    -17.06610238	     -1.14756816	     -1.87795942	     -0.65238818	      0.96111704	     -1.07199173	     11.52968659	      0.71132035	    -30.58286837	      2.62981062	      0.04589885	    -71.88978001	     -2.62949386	      0.00000000	      8.30928920	     -7.23940462	    -22.98802372	      0.17258375	      0.00301215	     24.43454618	     17.51670808	      0.00000000	      3.61859451	      0.15607532	      0.08048278	      6.72009187	      0.20758017	      0.08551295	      5.94498893	      0.37948153	      0.08551295	      4.13569167	      0.37948153	      0.07042243	      3.36022687	      0.31826879	      0.06539226	      2.06766491	      0.24176067	      0.06036208	     25.84725876	      1.76555521	      0.44762106	      0.00000000	      0.00000000	      3.75174468	      0.51197269	    -24.81269067	    -25.61959122	    -13.92010106	      9.92505003	     37.47664673	     89.99559364	      0.00000000	      0.00000000	    -22.41185741	    -15.73590089	     16.13448339	     44.29576135	     89.99559364	      0.00000000	      0.00000000
      0.13333333	    -17.05149356	     -1.13334322	     -1.91629725	     -0.65218600	      0.96115376	     -1.07164142	     11.51020271	      0.71322617	    -30.57216891	      2.65433724	      0.04632692	    -71.88563288	     -2.62461165	      0.00000000	      8.25859068	     -7.25048180	    -22.99965122	      0.17241659	      0.00300924	     24.42771381	     17.48995490	      0.00000000	      3.62223706	      0.15554575	      0.08344213	      6.72685644	      0.20687585	      0.08865726	      5.95097326	      0.37819395	      0.08865726	      4.13985473	      0.37819395	      0.07301186	      3.36360933	      0.31718890	      0.06779673	      2.06974625	      0.24094037	      0.06258159	     25.87327707	      1.75956468	      0.46408007	      0.00000000	      0.00000000	      3.78942285	      0.52450209	    -24.80870340	    -25.56251909	    -13.94438982	      9.91755074	     37.47144625	     89.99559364	      0.00000000	      0.00000000	    -22.41592463	    -15.73517129	     16.13447962	     44.30921674	     89.99559364	      0.00000000	      0.00000000
      0.16666667	    -16.65656224	     -0.98542543	     -2.68104821	     -0.65223818	      0.96163711	     -1.07008728	     11.23322289	      0.66816387	    -30.49460975	      2.86476745	      0.04999962	    -71.72160723	     -2.51911950	      0.00000000	      7.65700468	     -7.21894508	    -23.76450334	      0.16525458	      0.00288424	     24.34870869	     17.37000380	      0.00000000	      3.54762217	      0.15681881	      0.20494605	      6.58828913	      0.20856901	      0.21775517	      5.82838846	      0.38128925	      0.21775517	      4.05457738	      0.38128925	      0.17932779	      3.29432194	      0.31978491	      0.16651866	      2.02711131	      0.24291233	      0.15370953	     25.34031038	      1.77396570	      1.13984842	      0.00000000	      0.00000000	      4.29689164	      0.90008161	    -24.63893393	    -25.08523090	    -13.94686731	     10.12675546	     37.12065101	     89.99559364	      0.00000000	      0.00000000	    -22.36300998	    -15.75721297	     15.96551316	     44.45728309	     89.99559364	      0.00000000	      0.00000000
      0.20000000	    -16.63301435	     -0.96190347	     -2.70064385	     -0.65192212	      0.96171733	     -1.06953658	     11.19614604	      0.67158029	    -30.48158599	      2.89997936	      0.05061419	    -71.71255908	     -2.51233360	      0.00000000	      7.59420354	     -7.22555104	    -23.78428659	      0.16537626	      0.00288636	     24.36727300	     17.34974618	      0.00000000	      3.55257864	      0.15455451	      0.20525772	      6.59749379	      0.20555750	      0.21808632	      5.83653145	      0.37578385	      0.21808632	      4.06024213	      0.37578385	      0.17960050	      3.29892453	      0.31516757	      0.16677189	      2.02994343	      0.23940494	      0.15394329	     25.37571397	      1.74835158	      1.14158184	      0.00000000	      0.00000000	      4.31438198	      0.90459378	    -24.64041480	    -24.99860808	    -13.97896452	     10.12377405	     37.13191817	     89.99559364	      0.00000000	      0.00000000	    -22.34073341	    -15.74573053	     15.96334879	     44.43903901	     89.99559364	      0.00000000	      0.00000000
      0.23333333	    -15.15393653	     -0.87458185	     -3.41796642	     -0.65251570	      0.96349491	     -1.06798539	      9.84882433	      0.58620193	    -30.18385200	      3.22117129	      0.05622004	    -70.90815064	     -1.99994083	      0.00000000	      5.89819775	     -7.17846421	    -24.90122286	      0.15987374	      0.00279032	     24.47606595	     17.73365116	      0.00000000	      3.26878024	      0.15520795	      0.30265575	      6.07045178	      0.20642657	      0.32157174	      5.37027906	      0.37737261	      0.32157174	      3.73588894	      0.37737261	      0.26482379	      3.03538933	      0.31650005	      0.24590780	      1.86778103	      0.24041712	      0.22699182	     23.34857038	      1.75574338	      1.68328051	      0.00000000	      0.00000000	      5.08100020	      1.21366652	    -24.79608770	    -23.70889893	    -14.26074164	     11.44935160	     36.56654769	     89.99559364	      0.00000000	      0.00000000	    -21.60739831	    -15.58314408	     15.76741770	     44.01969850	     89.99559364	      0.00000000	      0.00000000
      0.26666667	    -15.14026709	     -0.83639269	     -3.47302955	     -0.65197312	      0.96359354	     -1.06701610	      9.80238765	      0.60045237	    -30.17011852	      3.25407675	      0.05679435	    -70.89518117	     -1.99147280	      0.00000000	      5.83130723	     -7.19468425	    -24.92323919	      0.15919722	      0.00277852	     24.48328612	     17.67503246	      0.00000000	      3.27802182	      0.15275418	      0.29941354	      6.08761433	      0.20316307	      0.31812689	      5.38546205	      0.37140652	      0.31812689	      3.74645114	      0.37140652	      0.26198685	      3.04397106	      0.31149633	      0.24327350	      1.87306167	      0.23661623	      0.22456016	     23.41458207	      1.72798589	      1.66524829	      0.00000000	      0.00000000	      5.11055444	      1.23539326	    -24.78777200	    -23.58270945	    -14.29822846	     11.43888478	     36.56720163	     89.99559364	      0.00000000	      0.00000000	    -21.61062758	    -15.59189951	     15.77001591	     43.95201110	     89.99559364	      0.00000000	      0.00000000
      0.30000000	    -13.61158984	     -0.81090158	     -4.10875437	     -0.65261730	      0.96559817	     -1.06516130	      8.36760463	      0.58459693	    -29.52733998	      3.48623375	      0.06084626	    -69.21381149	     -1.06164773	      0.00000000	      4.11780925	     -7.17834854	    -25.70165032	      0.15510675	      0.00270712	     24.51771981	     17.66698085	      0.00000000	      2.98543067	      0.15639077	      0.35486531	      5.54424330	      0.20799973	      0.37704440	      4.90476405	      0.38024852	      0.37704440	      3.41204871	      0.38024852	      0.31050715	      2.77227092	      0.31891206	      0.28832807	      1.70587508	      0.24224931	      0.26614898	     21.32463273	      1.76912370	      1.97365441	      0.00000000	      0.00000000	      5.87299730	      1.70999233	    -24.64731719	    -21.97741582	    -14.67045904	     13.35130739	     35.70176781	     89.99559364	      0.00000000	      0.00000000	    -20.75461066	    -15.37535463	     15.70231509	     43.13551404	     89.99559364	      0.00000000	      0.00000000
      0.33333333	    -13.51718599	     -0.74492827	     -4.38039241	     -0.65217001	      0.96595916	     -1.06356049	      8.28926194	      0.58661805	    -29.43572506	      3.62186881	      0.06321354	    -69.03190617	     -0.97485558	      0.00000000	      3.94017642	     -7.18337808	    -25.95113912	      0.15175159	      0.00264856	     24.37597910	     17.50454387	      0.00000000	      2.97682483	      0.15723446	      0.36784292	      5.52826139	      0.20912184	      0.39083310	      4.89062552	      0.38229987	      0.39083310	      3.40221310	      0.38229987	      0.32186255	      2.76427954	      0.32063252	      0.29887237	      1.70095771	      0.24355618	      0.27588219	     21.26316209	      1.77866769	      2.04583197	      0.00000000	      0.00000000	      5.90607830	      1.93222845	    -24.48520631	    -21.60119693	    -14.71270076	     13.45417715	     35.47551827	     89.99559364	      0.00000000	      0.00000000	    -20.60554100	    -15.26768709	     15.68533148	     42.58242727	     89.99559364	      0.00000000	      0.00000000
      0.36666667	    -13.10503948	     -0.66627282	     -4.86126620	     -0.65207243	      0.96673907	     -1.06147803	      7.96667165	      0.56573132	    -29.19132887	      3.88395769	      0.06778785	    -68.46966053	     -0.75885913	      0.00000000	      3.41093243	     -7.17686591	    -26.42870659	      0.14893150	      0.00259935	     24.33698378	     17.42457968	      0.00000000	      2.90320714	      0.16172404	      0.40822955	      5.39154598	      0.21509297	      0.43374390	      4.76967901	      0.39321583	      0.43374390	      3.31807544	      0.39321583	      0.35720086	      2.69591815	      0.32978766	      0.33168651	      1.65889256	      0.25051054	      0.30617216	     20.73731828	      1.82945468	      2.27045028	      0.00000000	      0.00000000	      5.99917382	      2.20524725	    -24.06901777	    -20.84597547	    -14.79088307	     13.98250127	     34.92626388	     89.99559364	      0.00000000	      0.00000000	    -20.20368142	    -15.08850993	     15.70533029	     41.71211629	     89.99559364	      0.00000000	      0.00000000
